<svg xmlns="http://www.w3.org/2000/svg" width="112" height="112" viewBox="0 0 112 112">
  <g fill="none" fill-rule="evenodd">
    <g fill="#F8DA79" transform="translate(16 17)">
      <path d="M65 7.66840682L63.2207547 9.44776401C62.8522013 9.81634065 62.3691824 10 61.8867925 10 61.4037736 10 60.9213836 9.81634065 60.5528302 9.44776401 59.8157233 8.71061073 59.8157233 7.51556702 60.5528302 6.77904271L62.3318509 5.00008986 60.5528302 3.22095729C59.8157233 2.48443298 59.8157233 1.29001824 60.5528302.55286496 61.2886792-.18428832 62.4836478-.18428832 63.2207547.55286496L65 2.33204242 66.7792453.55286496C67.5163522-.18428832 68.7106918-.18428832 69.4471698.55286496 70.1842767 1.29001824 70.1842767 2.48443298 69.4471698 3.22095729L67.6681491 5.00008986 69.4471698 6.77904271C70.1842767 7.51556702 70.1842767 8.71061073 69.4471698 9.44776401 69.0792453 9.81634065 68.5962264 10 68.1132075 10 67.6308176 10 67.1477987 9.81634065 66.7792453 9.44776401L65 7.66840682zM75 59.6684068L73.2207547 61.447764C72.8522013 61.8163407 72.3698113 62 71.8867925 62 71.4037736 62 70.9213836 61.8163407 70.5528302 61.447764 69.8157233 60.7106107 69.8157233 59.515567 70.5528302 58.7790427L72.3318509 57.0000899 70.5528302 55.2209573C69.8157233 54.484433 69.8157233 53.2900182 70.5528302 52.552865 71.2886792 51.8157117 72.4836478 51.8157117 73.2207547 52.552865L75 54.3320424 76.7792453 52.552865C77.5163522 51.8157117 78.7100629 51.8157117 79.4471698 52.552865 80.1842767 53.2900182 80.1842767 54.484433 79.4471698 55.2209573L77.6681491 57.0000899 79.4471698 58.7790427C80.1842767 59.515567 80.1842767 60.7106107 79.4471698 61.447764 79.0792453 61.8163407 78.5962264 62 78.1132075 62 77.6308176 62 77.1477987 61.8163407 76.7792453 61.447764L75 59.6684068zM5 75.6679576L3.22075472 77.447135C2.85220126 77.8157117 2.36918239 78 1.88679245 78 1.40377358 78 .921383648 77.8157117.552830189 77.447135-.18427673 76.7106107-.18427673 75.515567.552830189 74.7790427L2.33194071 73 .552830189 71.2209573C-.18427673 70.484433-.18427673 69.2900182.552830189 68.552865 1.28867925 67.8157117 2.4836478 67.8157117 3.22075472 68.552865L5 70.3320424 6.77924528 68.552865C7.5163522 67.8157117 8.71069182 67.8157117 9.44716981 68.552865 10.1842767 69.2900182 10.1842767 70.484433 9.44716981 71.2209573L7.66805929 73 9.44716981 74.7790427C10.1842767 75.515567 10.1842767 76.7106107 9.44716981 77.447135 9.07924528 77.8157117 8.59622642 78 8.11320755 78 7.63081761 78 7.14779874 77.8157117 6.77924528 77.447135L5 75.6679576zM5.55555556 18.223492L4.57660377 19.447135C4.28176101 19.8157117 3.89534591 20 3.50943396 20 3.12301887 20 2.73710692 19.8157117 2.44226415 19.447135 2.12381596 19.0493894 1.97733952 18.5179245 2.00283481 17.9971652L2 18 2.00283481 17.9971652C2.02455036 17.5536099 2.1710268 17.1178214 2.44226415 16.7790427L3.1839473 15.8519741.552830189 13.2209573C-.18427673 12.484433-.18427673 11.2900182.552830189 10.552865 1.28867925 9.81571168 2.4836478 9.81571168 3.22075472 10.552865L5.55555556 12.8875768 7.42339623 10.552865C8.01308176 9.81571168 8.96855346 9.81571168 9.55773585 10.552865 10.1474214 11.2900182 10.1474214 12.484433 9.55773585 13.2209573L7.92716381 15.2590946 9.44716981 16.7790427C10.1842767 17.515567 10.1842767 18.7106107 9.44716981 19.447135 9.07924528 19.8157117 8.59622642 20 8.11320755 20 7.63081761 20 7.14779874 19.8157117 6.77924528 19.447135L5.55555556 18.223492z"/>
    </g>
    <g fill="#000" fill-rule="nonzero" transform="translate(28 28)">
      <path d="M56.6621229,20.3417215 C51.8862089,5.07967755 35.5933842,-3.44939629 20.3346864,1.32654409 C5.07794615,6.10444276 -3.44862099,22.407955 1.32637176,37.6699989 L3.20118021,37.0825099 C-1.25071263,22.8550227 6.69839692,7.65575943 20.9219315,3.20109493 C27.8122728,1.04454935 35.1298061,1.70080917 41.5242133,5.04822961 C47.9214992,8.39760835 52.6316647,14.0370424 54.7883507,20.9293257 C56.9440005,27.8214938 56.2889344,35.1411466 52.9419833,41.5401694 C49.5959534,47.9401138 43.958862,52.6522368 37.0685206,54.8098191 C25.5358348,58.4204577 12.8944074,53.8607363 6.31933603,43.7194082 L4.67136535,44.7884079 C10.1062603,53.1730285 19.4085665,58.0010366 29.0517052,57.9999998 C31.9194183,57.9999998 34.8194874,57.5735519 37.6548445,56.6834484 C45.045035,54.3696631 51.0918161,49.314723 54.6823012,42.4510078 C58.2727862,35.5871775 58.974947,27.7350983 56.6621229,20.3417215 Z"/>
      <path d="M23.4383545,13.3855247 L24,11.6908651 L14.2158285,9.03750245 C13.8734037,8.94375798 13.4986293,9.02868798 13.2432733,9.25952338 L11.286462,11.0284318 C11.0585229,11.234483 10.9576883,11.52899 11.0164225,11.8156158 C11.0751566,12.1021379 11.286462,12.3436544 11.5809358,12.4621831 L20.3867016,16 L21.1812189,14.3832189 L13.6778144,11.3680482 L14.2139931,10.883356 L23.4383545,13.3855247 Z"/>
      <path d="M32.9999963,8.00003731 C32.9999963,7.44801765 32.5529686,7 32.0000751,7 C31.99902,7 31.99902,7 31.9980821,7 C29.798232,7 27.7293365,7.85699058 26.1734737,9.41315134 L17.6941325,17.8925391 L14.243355,17.0294514 C13.9024275,16.9444441 13.5423902,17.0434043 13.2933771,17.2924463 L11.2935347,19.292521 C11.0755897,19.5104913 10.9696067,19.8165175 11.0075917,20.1216057 C11.0455768,20.4265766 11.2215507,20.6985999 11.4855702,20.8566548 L16.2712173,23.7287282 L19.1429572,28.5149309 C19.3009938,28.7789811 19.5719303,28.9549755 19.877921,28.9929649 C19.9178991,28.9980067 19.9589323,29 19.9999655,29 C20.2629299,29 20.5179221,28.895998 20.7079646,28.708044 L22.707807,26.7079694 C22.955765,26.4589274 23.0557688,26.0989655 22.9707714,25.7578812 L22.1088391,22.3106896 L30.7232382,13.7802975 C32.1930485,12.2411382 33.0019894,10.2191376 32.9999963,8.00003731 Z M20.2958737,21.288609 C20.0448676,21.5365958 19.9439259,21.8986681 20.0289233,22.2416285 L20.8919107,25.6928066 L20.1979802,26.3868177 L17.857093,22.4846907 C17.7720956,22.3436372 17.6550923,22.2256823 17.5141724,22.1417303 L13.6124984,19.8005713 L14.306429,19.1065602 L17.7572064,19.9696479 C18.0981339,20.0546551 18.4581712,19.955695 18.7071843,19.706653 L27.5865409,10.8262654 C28.5065059,9.90525553 29.6643464,9.30821133 30.920315,9.09117896 C30.7223003,10.3272434 30.1593244,11.4732587 29.2953991,12.3783223 L20.2958737,21.288609 Z"/>
      <path d="M28.9637116 25.9132142L26.3115848 16 24.6159525 16.5559037 27.1080417 25.8703024 26.5714387 26.3948827 23.6240092 18.8263314 22 19.6013839 25.4301338 28.4088719C25.5423882 28.6966338 25.7722868 28.9079804 26.0489323 28.9764788 26.1135071 28.9920831 26.1779782 29 26.242553 29 26.4556601 29 26.6642066 28.9148647 26.8269392 28.7553794L28.7011627 26.9254294C28.9592546 26.6735803 29.0609365 26.2792272 28.9637116 25.9132142zM19.1377125 54.1965232C11.9635179 57.5110327 6.33555921 57.9392648 3.70039146 55.3711389-.866862571 50.918285 4.09321003 37.9811619 15.2372815 25.2767511L13.7061631 24C1.48331684 37.9339516-3.21786872 51.4053573 2.27509546 56.759813 3.80928464 58.2545376 5.97604636 59 8.6635348 59 11.7962806 59 15.6362416 57.9875115 20 55.9711705L19.1377125 54.1965232zM50.8882867 33.5280111C50.7234597 33.2030058 50.402358 33.0000533 50.0527114 33.0000533L46.8489138 33.0000533 44.2684377 27.5530484C44.1073871 27.2140908 43.7796212 27 43.4205337 27L33.9473112 27C33.4233967 27 33 27.4479962 33 27.9999893L33 36.0000213C33 36.5530697 33.4235077 37.0000107 33.9473112 37.0000107L36.7892446 37.0000107 36.7892446 48.0000107C36.7892446 48.553059 37.2126413 49 37.7365558 49L42.4731115 49C42.7241284 49 42.9648159 48.8949478 43.1438598 48.7059476L46.9331044 44.7059902C47.1111487 44.5189832 47.2106669 44.2650288 47.2106669 43.9989981L47.2106669 40.3020038 50.840749 34.554029C51.0341209 34.2480175 51.0531138 33.8530164 50.8882867 33.5280111zM45.4743185 39.4450544C45.371024 39.6090812 45.315156 39.8030058 45.315156 40.0000959L45.315156 43.5860584 42.0810364 47.0000213 38.683978 47.0000213 38.6829784 47.0000213 38.6829784 36.0000213C38.6829784 35.4469729 38.2595817 35.000032 37.7356672 35.000032L34.8937337 35.000032 34.8937337 29.0000959 42.8341982 29.0000959 45.4146742 34.4471008C45.5757249 34.7860584 45.9034908 35.0001492 46.2624672 35.0001492L48.2821537 35.0001492 45.4743185 39.4450544zM53.579923 26.0000138L49.8679024 19.5039864C49.6899224 19.1919942 49.3578806 18.9999448 48.9999274 18.9999448L42.9999609 18.9999448C42.665926 18.9999448 42.3539333 19.1669035 42.1679806 19.4448943L40.4649768 21.9999241 37.9999888 21.9999241 37.9999888 16.9999586 42.9999609 16.9999586C43.265993 16.9999586 43.5190107 16.894906 43.7069566 16.7069603L47.4139356 12.9999862 51.9999107 12.9999862 51.9999107 11 46.9999386 11C46.7339065 11 46.4808888 11.1050526 46.2929429 11.2929983L42.5859639 14.9999724 36.9999944 14.9999724C36.4469432 14.9999724 36 15.4479703 36 15.9999655L36 22.9999172C36 23.5519125 36.4470605 23.9999103 36.9999944 23.9999103L40.9999721 23.9999103C41.334007 23.9999103 41.6459997 23.8329517 41.8319524 23.5549609L43.5349562 20.999931 48.4200268 20.999931 52.1320473 27.4959585C52.3100274 27.8079507 52.6420691 28 53.0000223 28L57 28 57 26.0000138 53.579923 26.0000138z"/>
      <path d="M28.9998901 34.9999824L23.4139303 34.9999824 20.7069505 32.2929986C20.5199428 32.1049355 20.2649324 32 19.999956 32L14.9999927 32C14.4479977 32 14 32.4470603 14 32.9999941L14 39.9999531C14 40.5530041 14.4479977 40.9999472 14.9999927 40.9999472L18.9999634 40.9999472 18.9999634 51.0000059C18.9999634 51.3790633 19.2139376 51.7250573 19.5530136 51.8949473 19.6940607 51.9649433 19.848005 52 20.0000733 52 20.2120544 52 20.4230975 51.9330523 20.600022 51.7999777L24.5999927 48.7999953C24.8519547 48.6109942 25.0000366 48.3140092 25.0000366 48.0000234L25.0000366 45.4800476 29.6250467 41.7810424C29.8620012 41.5911033 30 41.3040843 30 41.0000645L30 36.0000938C29.9998828 35.4470428 29.5518851 34.9999824 28.9998901 34.9999824zM27.9998974 40.5200579L23.3748873 44.2190631C23.1379328 44.4091194 22.999934 44.6960212 22.999934 45.000041L22.999934 47.500085 20.9999487 49.0001348 20.9999487 40.0000703C20.9999487 39.4470193 20.551951 39.0000762 19.999956 39.0000762L15.9999853 39.0000762 15.9999853 34.0001055 19.5859598 34.0001055 22.2929396 36.7070893C22.4799472 36.8950352 22.7349577 37.0000879 22.999934 37.0000879L27.9998974 37.0000879 27.9998974 40.5200579zM8.85749731 21.0932616L5.85733639 16.4504045C5.67735253 16.1709294 5.35127103 16 5.00033181 16L4.00027817 16 4.00027817 17.8571429 4.43435 17.8571429 6.74154374 21.4274995 4.2934115 23.7006432C4.10533716 23.8742944 4.00039543 24.1110916 4.00039543 24.3571429L4.00039543 27.1428571 1 27.1428571 1 29 5.00021456 29C5.55224323 29 6.0002682 28.5839991 6.0002682 28.0714286L6.0002682 24.7415708 8.70741305 22.2279282C9.03150125 21.9261344 9.09352826 21.4590724 8.85749731 21.0932616zM30.0620314 1L30.0620314 2.21995545 26.9195637 3.03095322C26.8119746 3.05897526 26.7092706 3.10599132 26.6172461 3.16895298L24.1782549 4.84699261 18.8671893 2.10599132 18 3.89494665 23.8139059 6.89494665C23.9505794 6.96494314 24.0988412 7 24.2471029 7 24.4351284 7 24.6221313 6.94301794 24.7839127 6.83198499L27.551352 4.92801032 31.2655078 3.96998476C31.6966599 3.85895181 32 3.45902216 32 3L32 1 30.0620314 1z"/>
    </g>
  </g>
</svg>
