<svg xmlns="http://www.w3.org/2000/svg" width="112" height="112" viewBox="0 0 112 112">
  <g fill="none" fill-rule="evenodd">
    <g fill="#F8DA79" transform="translate(16 17)">
      <path d="M65 7.66840682L63.2207547 9.44776401C62.8522013 9.81634065 62.3691824 10 61.8867925 10 61.4037736 10 60.9213836 9.81634065 60.5528302 9.44776401 59.8157233 8.71061073 59.8157233 7.51556702 60.5528302 6.77904271L62.3318509 5.00008986 60.5528302 3.22095729C59.8157233 2.48443298 59.8157233 1.29001824 60.5528302.55286496 61.2886792-.18428832 62.4836478-.18428832 63.2207547.55286496L65 2.33204242 66.7792453.55286496C67.5163522-.18428832 68.7106918-.18428832 69.4471698.55286496 70.1842767 1.29001824 70.1842767 2.48443298 69.4471698 3.22095729L67.6681491 5.00008986 69.4471698 6.77904271C70.1842767 7.51556702 70.1842767 8.71061073 69.4471698 9.44776401 69.0792453 9.81634065 68.5962264 10 68.1132075 10 67.6308176 10 67.1477987 9.81634065 66.7792453 9.44776401L65 7.66840682zM75 59.6684068L73.2207547 61.447764C72.8522013 61.8163407 72.3698113 62 71.8867925 62 71.4037736 62 70.9213836 61.8163407 70.5528302 61.447764 69.8157233 60.7106107 69.8157233 59.515567 70.5528302 58.7790427L72.3318509 57.0000899 70.5528302 55.2209573C69.8157233 54.484433 69.8157233 53.2900182 70.5528302 52.552865 71.2886792 51.8157117 72.4836478 51.8157117 73.2207547 52.552865L75 54.3320424 76.7792453 52.552865C77.5163522 51.8157117 78.7100629 51.8157117 79.4471698 52.552865 80.1842767 53.2900182 80.1842767 54.484433 79.4471698 55.2209573L77.6681491 57.0000899 79.4471698 58.7790427C80.1842767 59.515567 80.1842767 60.7106107 79.4471698 61.447764 79.0792453 61.8163407 78.5962264 62 78.1132075 62 77.6308176 62 77.1477987 61.8163407 76.7792453 61.447764L75 59.6684068zM5 75.6679576L3.22075472 77.447135C2.85220126 77.8157117 2.36918239 78 1.88679245 78 1.40377358 78 .921383648 77.8157117.552830189 77.447135-.18427673 76.7106107-.18427673 75.515567.552830189 74.7790427L2.33194071 73 .552830189 71.2209573C-.18427673 70.484433-.18427673 69.2900182.552830189 68.552865 1.28867925 67.8157117 2.4836478 67.8157117 3.22075472 68.552865L5 70.3320424 6.77924528 68.552865C7.5163522 67.8157117 8.71069182 67.8157117 9.44716981 68.552865 10.1842767 69.2900182 10.1842767 70.484433 9.44716981 71.2209573L7.66805929 73 9.44716981 74.7790427C10.1842767 75.515567 10.1842767 76.7106107 9.44716981 77.447135 9.07924528 77.8157117 8.59622642 78 8.11320755 78 7.63081761 78 7.14779874 77.8157117 6.77924528 77.447135L5 75.6679576zM5.55555556 18.223492L4.57660377 19.447135C4.28176101 19.8157117 3.89534591 20 3.50943396 20 3.12301887 20 2.73710692 19.8157117 2.44226415 19.447135 2.12381596 19.0493894 1.97733952 18.5179245 2.00283481 17.9971652L2 18 2.00283481 17.9971652C2.02455036 17.5536099 2.1710268 17.1178214 2.44226415 16.7790427L3.1839473 15.8519741.552830189 13.2209573C-.18427673 12.484433-.18427673 11.2900182.552830189 10.552865 1.28867925 9.81571168 2.4836478 9.81571168 3.22075472 10.552865L5.55555556 12.8875768 7.42339623 10.552865C8.01308176 9.81571168 8.96855346 9.81571168 9.55773585 10.552865 10.1474214 11.2900182 10.1474214 12.484433 9.55773585 13.2209573L7.92716381 15.2590946 9.44716981 16.7790427C10.1842767 17.515567 10.1842767 18.7106107 9.44716981 19.447135 9.07924528 19.8157117 8.59622642 20 8.11320755 20 7.63081761 20 7.14779874 19.8157117 6.77924528 19.447135L5.55555556 18.223492z"/>
    </g>
    <g fill="#000" fill-rule="nonzero" transform="translate(24 27)">
      <path d="M30.5,0 C13.6817043,0 0,13.6827373 0,30.5 C0,47.3172627 13.6817043,61 30.5,61 C47.3182957,61 61,47.3172627 61,30.5 C61,13.6827373 47.3182957,0 30.5,0 Z M30.5,59.0322181 C14.7678686,59.0322181 1.96778193,46.2329578 1.96778193,30.5 C1.96778193,14.7670422 14.7678686,1.96778193 30.5,1.96778193 C46.2321314,1.96778193 59.0322181,14.7670422 59.0322181,30.5 C59.0322181,46.2329578 46.2321314,59.0322181 30.5,59.0322181 Z"/>
      <path d="M52.7035581,26.8705039 L52.7074614,26.8666006 C52.705407,26.8645463 52.7045853,26.8637246 52.702531,26.8616702 C50.9573655,16.180156 41.6678262,8 30.5,8 C19.3321738,8 10.0426345,16.180156 8.29849622,26.8618757 C8.29644188,26.86393 8.29562014,26.8647517 8.29356579,26.8668061 L8.29746905,26.8707093 C8.10477156,28.0523627 8,29.2644203 8,30.5001027 C8,42.906231 18.0927879,53 30.5,53 C42.9072121,53 53,42.9064365 53,30.5001027 C53,29.2644203 52.8952284,28.0523627 52.7035581,26.8705039 Z M30.5,9.95654853 C39.8051523,9.95654853 47.674318,16.180156 50.1913005,24.680172 C44.6544319,20.3749024 37.382875,17.7825372 30.5,17.7825372 C23.617125,17.7825372 16.3465953,20.3749024 10.8086995,24.6811992 C13.325682,16.180156 21.1948477,9.95654853 30.5,9.95654853 Z M11.2164868,37.5158617 C12.5811877,36.313665 16.2114194,33.4345147 19.7391394,33.4345147 C23.3048647,33.4345147 25.6086063,36.1228173 25.6086063,40.2822291 C25.6086063,44.2569562 23.6580065,47.8070523 22.5907746,49.4552452 C17.3238468,47.2495058 13.1839323,42.9031495 11.2164868,37.5158617 Z M38.4073765,49.4564778 C37.3391175,47.8119827 35.3913937,44.2707202 35.3913937,40.2824345 C35.3913937,36.1228173 37.6951353,33.4347201 41.2608606,33.4347201 C44.7787197,33.4347201 48.4159362,36.3146921 49.782486,37.5179161 C47.815246,42.9041767 43.675126,47.250533 38.4073765,49.4564778 Z M50.4078284,35.478167 C48.5412512,33.9480984 44.9570368,31.4781716 41.2610661,31.4781716 C36.6533773,31.4781716 33.4350416,35.0987313 33.4350416,40.2824345 C33.4350416,44.4917667 35.2938123,48.1721076 36.5175852,50.1403659 C34.6138244,50.7244133 32.5937877,51.043246 30.5004109,51.043246 C28.4070341,51.043246 26.3863811,50.7244133 24.4828257,50.1403659 C25.7065986,48.1721076 27.5653692,44.4919721 27.5653692,40.2824345 C27.5653692,35.0987313 24.3468281,31.4781716 19.7393448,31.4781716 C16.0435795,31.4781716 12.4591596,33.9483038 10.5925824,35.478167 C10.1923962,33.8807162 9.9567629,32.219581 9.9567629,30.4998973 C9.9567629,29.5853074 10.0379095,28.6910554 10.1543908,27.8076914 C15.5063685,22.8205881 23.2327572,19.7390858 30.5002054,19.7390858 C37.7686808,19.7390858 45.4948641,22.8205881 50.8460201,27.8076914 C50.9625014,28.6910554 51.043648,29.585102 51.043648,30.4998973 C51.043648,32.219581 50.8078092,33.8807162 50.4078284,35.478167 Z"/>
      <path d="M29.5 23C27.0186686 23 25 25.0186686 25 27.5 25 29.9813314 27.0186686 32 29.5 32 31.9813314 32 34 29.9813314 34 27.5 34 25.0186686 31.9813314 23 29.5 23zM29.5 30.2C28.0114658 30.2 26.8 28.9885342 26.8 27.5 26.8 26.0114658 28.0114658 24.8 29.5 24.8 30.9885342 24.8 32.2 26.0114658 32.2 27.5 32.2 28.9885342 30.9885342 30.2 29.5 30.2zM59.1951645 14L61 13.2709235C58.9755554 8.15749654 52.9254887 2.04792605 48.8698642 0L48 1.75551238C51.6678389 3.60725956 57.3574692 9.35950425 59.1951645 14z"/>
      <rect width="2" height="2" x="22" y="26"/>
      <rect width="2" height="2" x="38" y="26"/>
      <rect width="2" height="2" x="28" y="55"/>
      <rect width="2" height="2" x="31" y="55"/>
      <path d="M1.80483554,47 L0,47.7291302 C2.02546511,52.8421091 8.07553183,58.9529536 12.1301358,61 L13,59.2443584 C9.33216108,57.3935054 3.64253081,51.6408373 1.80483554,47 Z"/>
    </g>
  </g>
</svg>
