<svg xmlns="http://www.w3.org/2000/svg" width="112" height="112" viewBox="0 0 112 112">
  <g fill="none" fill-rule="evenodd">
    <g fill="#000" fill-rule="nonzero" transform="translate(29 30)">
      <path d="M49.1616748,15.9278718 L41.1254893,15.9278718 L49.7543707,7.2990575 C50.0816319,6.97169405 50.0816319,6.44103832 49.7543707,6.11367487 L43.8860942,0.245443996 C43.5587282,-0.0818146652 43.0280683,-0.0818146652 42.7007023,0.245443996 L33.2334957,9.71257703 L31.6582826,8.1373762 C30.6631906,7.18756112 29.0971991,7.18756112 28.102107,8.1373762 L22.9279638,13.3114792 C21.9461802,14.2935695 21.9461802,15.8855367 22.9279638,16.8676271 L23.6648517,17.6045092 L18.7363377,22.5329848 C17.7545541,23.5150752 17.7545541,25.1070424 18.7363377,26.0891328 L23.9096426,31.2632357 C24.8917406,32.2454309 26.4841394,32.2456405 27.4663421,31.2635501 C27.4664469,31.2634453 27.4665517,31.2633405 27.4666565,31.2632357 L32.3951705,26.3347601 L33.13122,27.0716423 C34.113318,28.0538374 35.7057167,28.054047 36.6879195,27.0719566 C36.6880243,27.0718518 36.6881291,27.0717471 36.6882339,27.0716423 L38.6105136,25.1493775 L49.1616748,25.1493775 C49.6246399,25.1493775 50,24.7740203 50,24.3110588 L50,16.7661905 C50,16.303229 49.6247447,15.9278718 49.1616748,15.9278718 Z M43.2933983,2.02351795 L47.9762829,6.70636618 L39.1017722,15.5808079 L34.4188875,10.8979597 L43.2933983,2.02351795 Z M26.2812647,30.0778531 C25.9500214,30.3957855 25.4271161,30.3957855 25.0958728,30.0778531 L19.9225679,24.9037501 C19.5953067,24.5763867 19.5953067,24.0457309 19.9225679,23.7183675 L24.8502435,18.7898919 L31.2097786,25.1493775 L26.2812647,30.0778531 Z M35.502842,25.8862596 C35.1715988,26.204192 34.6486934,26.204192 34.3174502,25.8862596 L24.114194,15.6822445 C23.7869328,15.354881 23.7869328,14.8242253 24.114194,14.4968618 L29.2883372,9.32275883 C29.6157032,8.99550017 30.1463631,8.99550017 30.4737291,9.32275883 L40.6761469,19.526774 C41.0034082,19.8541375 41.0034082,20.3847932 40.6761469,20.7121566 L35.502842,25.8862596 Z M48.3233496,23.4727401 L40.287164,23.4727401 L41.8623771,21.8975393 C42.8441607,20.9154489 42.8441607,19.3234817 41.8623771,18.3413914 L41.1254893,17.6045092 L48.3233496,17.6045092 L48.3233496,23.4727401 Z"/>
      <path d="M37.7490368 19.96549L30.03451 12.2509632C29.6997853 11.9163456 29.1571969 11.9163456 28.8224721 12.2509632L26.2509632 14.8224721C25.9163456 15.1571969 25.9163456 15.6997853 26.2509632 16.03451L33.96549 23.7490368C34.3002147 24.0836544 34.8428031 24.0836544 35.1775279 23.7490368L37.7490368 21.1775279C38.0836544 20.8428031 38.0836544 20.3002147 37.7490368 19.96549zM34.5715089 21.93098L28.06902 15.4284911 29.4284911 14.06902 35.93098 20.5715089 34.5715089 21.93098zM28.7722702 24.3389922L25.6610078 21.2277298C25.3572708 20.9240901 24.8649136 20.9240901 24.5611766 21.2277298L22.2277298 23.5611766C21.9240901 23.8649136 21.9240901 24.3572708 22.2277298 24.6610078L25.3389922 27.7722702C25.6427292 28.0759099 26.1350864 28.0759099 26.4388234 27.7722702L28.7722702 25.4388234C29.0759099 25.1350864 29.0759099 24.6427292 28.7722702 24.3389922zM25.8889078 26.1225233L23.8774767 24.1110922 25.1110922 22.8774767 27.1225233 24.8889078 25.8889078 26.1225233zM24.7560121 36.0774793L13.9225207 25.2439879C13.5970993 24.9186707 13.0695916 24.9186707 12.7441702 25.2439879L3.92237491 34.0657833C2.94642318 35.0420475 2.94642318 36.6245706 3.92237491 37.6008348L4.65488559 38.3333455.243987933 42.7442431C-.0813293111 43.0696646-.0813293111 43.5971723.243987933 43.9225937L6.07740634 49.7560121C6.40282775 50.0813293 6.93033544 50.0813293 7.25575685 49.7560121L11.6666545 45.3451144 12.3983319 46.0776251C13.3745961 47.0539935 14.9575358 47.0542018 15.9339042 46.0779376 15.9340084 46.0778334 15.9341126 46.0777293 15.9342167 46.0776251L24.7560121 37.2558298C25.0813293 36.9304084 25.0813293 36.4029007 24.7560121 36.0774793zM6.6665816 47.9884863L2.01151371 43.3334184 5.83323611 39.511696 10.488304 44.1667639 6.6665816 47.9884863zM14.7558662 44.8992746C14.4265906 45.2153208 13.9067913 45.2153208 13.5775157 44.8992746L5.10155877 36.4224843C4.77624153 36.0970629 4.77624153 35.5695552 5.10155877 35.2441338L5.10072543 35.2441338 13.3333455 27.0115137 22.9884863 36.6666545 14.7558662 44.8992746z"/>
      <path d="M19.7588798,35.829525 L13.170475,29.2411202 C12.8488785,28.9196266 12.3275709,28.9196266 12.0059744,29.2411202 L6.24112018,35.0059744 C5.91962661,35.3275709 5.91962661,35.8488785 6.24112018,36.170475 L12.829525,42.7588798 C13.1511215,43.0803734 13.6724291,43.0803734 13.9940256,42.7588798 L19.7588798,36.9940256 C20.0803734,36.6724291 20.0803734,36.1511215 19.7588798,35.829525 Z M13.4117753,41.012129 L7.98787101,35.5882247 L12.5882247,30.987871 L18.012129,36.4117753 L13.4117753,41.012129 Z"/>
    </g>
    <g fill="#F8DA79" transform="translate(16 17)">
      <path d="M65 7.66840682L63.2207547 9.44776401C62.8522013 9.81634065 62.3691824 10 61.8867925 10 61.4037736 10 60.9213836 9.81634065 60.5528302 9.44776401 59.8157233 8.71061073 59.8157233 7.51556702 60.5528302 6.77904271L62.3318509 5.00008986 60.5528302 3.22095729C59.8157233 2.48443298 59.8157233 1.29001824 60.5528302.55286496 61.2886792-.18428832 62.4836478-.18428832 63.2207547.55286496L65 2.33204242 66.7792453.55286496C67.5163522-.18428832 68.7106918-.18428832 69.4471698.55286496 70.1842767 1.29001824 70.1842767 2.48443298 69.4471698 3.22095729L67.6681491 5.00008986 69.4471698 6.77904271C70.1842767 7.51556702 70.1842767 8.71061073 69.4471698 9.44776401 69.0792453 9.81634065 68.5962264 10 68.1132075 10 67.6308176 10 67.1477987 9.81634065 66.7792453 9.44776401L65 7.66840682zM70 60.6684068L68.2207547 62.447764C67.8522013 62.8163407 67.3698113 63 66.8867925 63 66.4037736 63 65.9213836 62.8163407 65.5528302 62.447764 64.8157233 61.7106107 64.8157233 60.515567 65.5528302 59.7790427L67.3318509 58.0000899 65.5528302 56.2209573C64.8157233 55.484433 64.8157233 54.2900182 65.5528302 53.552865 66.2886792 52.8157117 67.4836478 52.8157117 68.2207547 53.552865L70 55.3320424 71.7792453 53.552865C72.5163522 52.8157117 73.7100629 52.8157117 74.4471698 53.552865 75.1842767 54.2900182 75.1842767 55.484433 74.4471698 56.2209573L72.6681491 58.0000899 74.4471698 59.7790427C75.1842767 60.515567 75.1842767 61.7106107 74.4471698 62.447764 74.0792453 62.8163407 73.5962264 63 73.1132075 63 72.6308176 63 72.1477987 62.8163407 71.7792453 62.447764L70 60.6684068zM5 75.6679576L3.22075472 77.447135C2.85220126 77.8157117 2.36918239 78 1.88679245 78 1.40377358 78 .921383648 77.8157117.552830189 77.447135-.18427673 76.7106107-.18427673 75.515567.552830189 74.7790427L2.33194071 73 .552830189 71.2209573C-.18427673 70.484433-.18427673 69.2900182.552830189 68.552865 1.28867925 67.8157117 2.4836478 67.8157117 3.22075472 68.552865L5 70.3320424 6.77924528 68.552865C7.5163522 67.8157117 8.71069182 67.8157117 9.44716981 68.552865 10.1842767 69.2900182 10.1842767 70.484433 9.44716981 71.2209573L7.66805929 73 9.44716981 74.7790427C10.1842767 75.515567 10.1842767 76.7106107 9.44716981 77.447135 9.07924528 77.8157117 8.59622642 78 8.11320755 78 7.63081761 78 7.14779874 77.8157117 6.77924528 77.447135L5 75.6679576zM15.5555556 22.223492L14.5766038 23.447135C14.281761 23.8157117 13.8953459 24 13.509434 24 13.1230189 24 12.7371069 23.8157117 12.4422642 23.447135 12.123816 23.0493894 11.9773395 22.5179245 12.0028348 21.9971652L12 22 12.0028348 21.9971652C12.0245504 21.5536099 12.1710268 21.1178214 12.4422642 20.7790427L13.1839473 19.8519741 10.5528302 17.2209573C9.81572327 16.484433 9.81572327 15.2900182 10.5528302 14.552865 11.2886792 13.8157117 12.4836478 13.8157117 13.2207547 14.552865L15.5555556 16.8875768 17.4233962 14.552865C18.0130818 13.8157117 18.9685535 13.8157117 19.5577358 14.552865 20.1474214 15.2900182 20.1474214 16.484433 19.5577358 17.2209573L17.9271638 19.2590946 19.4471698 20.7790427C20.1842767 21.515567 20.1842767 22.7106107 19.4471698 23.447135 19.0792453 23.8157117 18.5962264 24 18.1132075 24 17.6308176 24 17.1477987 23.8157117 16.7792453 23.447135L15.5555556 22.223492z"/>
    </g>
  </g>
</svg>
